<svg width="444" height="444" viewBox="0 0 444 444" fill="none" xmlns="http://www.w3.org/2000/svg">
<rect width="444" height="444" rx="222" fill="#1ABABD"/>
<path d="M170.752 297.203C173.731 295.409 177.683 296.523 179.264 299.679C182.608 306.3 186.377 310.693 189.417 313.106C198.537 320.532 207.899 325.915 222.187 325.915C243.77 325.915 253.315 317.19 253.315 301.968C253.315 293.553 248.816 286.189 241.52 282.909C235.623 280.187 228.449 276.66 210.149 272.019C184.614 265.522 175.373 263.294 165.037 256.24C147.406 244.235 137.861 225.981 137.861 203.952C137.861 161.999 172.637 135.577 227.841 135.577C258.847 135.577 280.977 150.242 296.116 170.662C296.663 171.342 297.21 172.085 297.696 172.766C299.885 175.798 299.095 180.129 295.994 182.171L265.474 202.282C262.738 204.076 259.151 203.334 257.206 200.735C248.694 189.163 237.386 184.832 227.111 184.028C210.027 182.79 202.549 189.968 201.88 201.106C201.394 209.212 207.231 218.123 217.201 221.402C224.436 223.692 241.155 226.167 250.457 229.075C269.791 235.077 279.093 242.07 288.881 249.928C305.418 265.398 310.707 274.556 310.707 299.617C310.707 320.037 303.959 337.486 291.07 349.738C274.837 365.022 250.153 372.881 217.323 372.881C193.49 372.881 179.264 369.292 163.153 359.329C151.236 351.966 140.232 339.714 133.727 326.348C132.207 323.254 133.362 319.48 136.28 317.747L170.752 297.389V297.203Z" fill="white"/>
<path d="M328.859 110.657C300.939 85.5022 262.154 71.1191 221.969 71.1191C181.784 71.1191 143 85.5022 115.079 110.657C112.993 112.526 111.811 115.25 111.811 118.102V123.583C111.811 124.913 113.242 125.705 114.363 125.008L116.697 123.519C140.541 108.281 178.142 90.0959 222 90.0959C265.858 90.0959 303.491 108.281 327.303 123.519L329.638 125.008C330.727 125.705 332.19 124.913 332.19 123.583V118.102C332.19 115.25 331.007 112.558 328.922 110.657H328.859Z" fill="#FFBC00"/>
</svg>
