<svg width="276" height="94" viewBox="0 0 276 94" fill="none" xmlns="http://www.w3.org/2000/svg">
<g clip-path="url(#clip0_6239_383)">
<path d="M81.7532 40.7705C67.2928 40.7705 55.5586 52.6369 55.5586 67.2602C55.5586 81.8835 67.2928 93.75 81.7532 93.75C96.2136 93.75 107.948 81.8835 107.948 67.2602C107.948 52.6369 96.2136 40.7705 81.7532 40.7705ZM81.7532 79.0239C75.3188 79.0239 70.1206 73.75 70.1206 67.2602C70.1206 60.7705 75.3358 55.4965 81.7532 55.4965C88.1706 55.4965 93.3858 60.7705 93.3858 67.2602C93.3858 73.75 88.1706 79.0239 81.7532 79.0239Z" fill="#1ABABD"/>
<path d="M199.406 40.7705C184.945 40.7705 173.211 52.6369 173.211 67.2602C173.211 81.8835 184.945 93.75 199.406 93.75C213.866 93.75 225.6 81.8835 225.6 67.2602C225.6 52.6369 213.866 40.7705 199.406 40.7705ZM199.406 79.0239C192.971 79.0239 187.773 73.75 187.773 67.2602C187.773 60.7705 192.988 55.4965 199.406 55.4965C205.823 55.4965 211.038 60.7705 211.038 67.2602C211.038 73.75 205.823 79.0239 199.406 79.0239Z" fill="#1ABABD"/>
<path d="M140.852 40.7879C136.433 40.6851 132.268 41.6954 128.593 43.5447V30.1543C128.593 29.281 127.628 28.7502 126.9 29.2297L114.59 37.5173C114.285 37.7228 114.099 38.0653 114.099 38.4249L114.031 67.2605C114.031 81.8838 125.765 93.7502 140.226 93.7502C154.686 93.7502 166.725 81.5756 166.404 66.6783C166.099 52.6029 154.754 41.1132 140.835 40.7708L140.852 40.7879ZM140.988 79.0242C133.961 79.4694 128.17 73.6132 128.61 66.5071C128.983 60.6509 133.673 55.8906 139.464 55.531C146.491 55.0858 152.282 60.942 151.842 68.0482C151.469 73.9043 146.779 78.6646 140.988 79.0242Z" fill="#1ABABD"/>
<path d="M261.427 72.6372C260.953 76.3359 257.77 79.1612 253.96 79.0242C250.015 78.8872 246.933 75.4797 246.933 71.4728V56.5585C246.933 55.942 247.424 55.4626 248.017 55.4626H259.836C260.445 55.4626 260.919 54.966 260.919 54.3667V41.8496C260.919 41.2331 260.428 40.7537 259.836 40.7537H248.017C247.407 40.7537 246.933 40.2571 246.933 39.6578V30.1372C246.933 29.2639 245.968 28.7331 245.24 29.2126L232.93 37.5002C232.625 37.7057 232.439 38.0482 232.439 38.4078L232.371 71.6612V71.7468C232.422 83.9044 242.175 93.7331 254.197 93.7331C266.219 93.7331 275.397 84.4694 275.989 72.8256C276.023 72.192 275.515 71.6612 274.889 71.6612H262.477C261.935 71.6612 261.461 72.0722 261.393 72.6201L261.427 72.6372Z" fill="#1ABABD"/>
<path d="M10.4986 72.8598C11.3283 72.3632 12.4289 72.6715 12.8691 73.5447C13.8004 75.3769 14.8502 76.5927 15.6969 77.2605C18.2367 79.3153 20.8444 80.805 24.8235 80.805C30.8345 80.805 33.4929 78.3906 33.4929 74.1783C33.4929 71.8495 32.2399 69.8119 30.208 68.9043C28.5656 68.1509 26.5675 67.1749 21.4709 65.8906C14.3592 64.0927 11.7855 63.4763 8.90693 61.5242C3.9965 58.2023 1.33809 53.1509 1.33809 47.055C1.33809 35.4454 11.0235 28.1338 26.3982 28.1338C35.0338 28.1338 41.1972 32.192 45.4134 37.8427C45.5658 38.031 45.7182 38.2365 45.8537 38.4249C46.4633 39.2639 46.2431 40.4626 45.3796 41.0276L36.8794 46.5927C36.1175 47.0893 35.1185 46.8838 34.5766 46.1646C32.2061 42.9626 29.0566 41.7639 26.195 41.5413C21.437 41.1989 19.3543 43.1852 19.168 46.2673C19.0326 48.5105 20.6581 50.9763 23.435 51.8838C25.45 52.5173 30.1064 53.2023 32.6971 54.0071C38.0817 55.668 40.6723 57.603 43.3985 59.7776C48.0041 64.0584 49.4772 66.5927 49.4772 73.5276C49.4772 79.1783 47.5977 84.0071 44.008 87.3975C39.4871 91.6269 32.6125 93.8016 23.4689 93.8016C16.8313 93.8016 12.8691 92.8084 8.38202 90.0516C5.06325 88.0139 1.99846 84.6235 0.186682 80.9249C-0.236631 80.0687 0.0850866 79.0242 0.897847 78.5447L10.4986 72.9112V72.8598Z" fill="#1ABABD"/>
<path d="M197.625 21.3699C182.437 7.77397 161.339 0 139.479 0C117.619 0 96.5211 7.77397 81.3326 21.3699C80.1981 22.3801 79.5547 23.8527 79.5547 25.3938V28.3562C79.5547 29.0753 80.3336 29.5034 80.9432 29.1267L82.2131 28.3219C95.1834 20.0856 115.638 10.2568 139.496 10.2568C163.354 10.2568 183.825 20.0856 196.778 28.3219L198.048 29.1267C198.641 29.5034 199.437 29.0753 199.437 28.3562V25.3938C199.437 23.8527 198.793 22.3973 197.659 21.3699H197.625Z" fill="#F5BD48"/>
</g>
<defs>
<clipPath id="clip0_6239_383">
<rect width="276" height="93.75" fill="white"/>
</clipPath>
</defs>
</svg>
